<svg width="35" height="35" viewBox="0 0 35 35" fill="none" xmlns="http://www.w3.org/2000/svg">
<path d="M23.3334 4.375H1.45837V23.3333H23.3334V4.375Z" stroke="black" stroke-width="2" stroke-linecap="round" stroke-linejoin="round"/>
<path d="M23.3334 11.6667H29.1667L33.5417 16.0417V23.3333H23.3334V11.6667Z" stroke="black" stroke-width="2" stroke-linecap="round" stroke-linejoin="round"/>
<path d="M8.02083 30.625C10.0344 30.625 11.6667 28.9927 11.6667 26.9792C11.6667 24.9656 10.0344 23.3333 8.02083 23.3333C6.0073 23.3333 4.375 24.9656 4.375 26.9792C4.375 28.9927 6.0073 30.625 8.02083 30.625Z" stroke="black" stroke-width="2" stroke-linecap="round" stroke-linejoin="round"/>
<path d="M26.9792 30.625C28.9927 30.625 30.625 28.9927 30.625 26.9792C30.625 24.9656 28.9927 23.3333 26.9792 23.3333C24.9657 23.3333 23.3334 24.9656 23.3334 26.9792C23.3334 28.9927 24.9657 30.625 26.9792 30.625Z" stroke="black" stroke-width="2" stroke-linecap="round" stroke-linejoin="round"/>
</svg>
