<svg width="35" height="35" viewBox="0 0 35 35" fill="none" xmlns="http://www.w3.org/2000/svg">
<path d="M24.7917 30.625V27.7083C24.7917 26.1612 24.1771 24.6775 23.0831 23.5835C21.9892 22.4896 20.5054 21.875 18.9583 21.875H7.29168C5.74458 21.875 4.26085 22.4896 3.16689 23.5835C2.07293 24.6775 1.45834 26.1612 1.45834 27.7083V30.625" stroke="black" stroke-width="2" stroke-linecap="round" stroke-linejoin="round"/>
<path d="M13.125 16.0417C16.3467 16.0417 18.9583 13.43 18.9583 10.2083C18.9583 6.98667 16.3467 4.375 13.125 4.375C9.90333 4.375 7.29166 6.98667 7.29166 10.2083C7.29166 13.43 9.90333 16.0417 13.125 16.0417Z" stroke="black" stroke-width="2" stroke-linecap="round" stroke-linejoin="round"/>
<path d="M33.5417 30.625V27.7083C33.5407 26.4159 33.1105 25.1603 32.3186 24.1388C31.5268 23.1173 30.4181 22.3877 29.1667 22.0646" stroke="black" stroke-width="2" stroke-linecap="round" stroke-linejoin="round"/>
<path d="M23.3333 4.56458C24.5881 4.88586 25.7003 5.61561 26.4945 6.63879C27.2887 7.66197 27.7198 8.92038 27.7198 10.2156C27.7198 11.5109 27.2887 12.7693 26.4945 13.7925C25.7003 14.8156 24.5881 15.5454 23.3333 15.8667" stroke="black" stroke-width="2" stroke-linecap="round" stroke-linejoin="round"/>
</svg>
