<svg width="30" height="30" viewBox="0 0 30 30" fill="none" xmlns="http://www.w3.org/2000/svg">
<path d="M24.3679 5.64618C24.9347 6.21271 25.3769 6.89133 25.6662 7.6386C25.9999 8.52516 26.1779 9.46269 26.1925 10.4099C26.2625 11.6061 26.2625 11.9936 26.2625 15.0471V15.0474C26.2625 18.1011 26.2462 18.4824 26.1925 19.6849C26.1737 20.6199 25.9975 21.5424 25.6687 22.4174C25.379 23.1645 24.9366 23.8431 24.37 24.4098C23.8033 24.9765 23.1247 25.4188 22.3775 25.7086C21.5028 26.0363 20.5789 26.2134 19.645 26.2324C18.4513 26.3011 18.06 26.3011 15.0077 26.3011H15.0075C11.955 26.3011 11.5737 26.2849 10.37 26.2324C9.4342 26.2016 8.51053 26.0113 7.63874 25.6698C6.89132 25.3806 6.21246 24.9386 5.64553 24.3721C5.07861 23.8056 4.63608 23.1271 4.34624 22.3799C4.01749 21.5036 3.84124 20.5811 3.82249 19.6461C3.75249 18.4499 3.75249 18.0611 3.75249 15.0086C3.75249 11.9549 3.76874 11.5736 3.82249 10.3711C3.84076 9.43715 4.01787 8.51312 4.34624 7.6386C4.63527 6.89113 5.07737 6.21234 5.64415 5.64576C6.21094 5.07919 6.88991 4.63736 7.63749 4.3486C8.51093 4.01936 9.43422 3.8418 10.3675 3.8236C11.5612 3.7561 11.9525 3.7561 15.005 3.7561C18.0575 3.7561 18.4387 3.7711 19.6425 3.8236C20.5765 3.84278 21.5004 4.0203 22.375 4.3486C23.1224 4.63769 23.8012 5.07965 24.3679 5.64618Z" fill="#262526"/>
<path d="M15 20C13.6739 20 12.4021 19.4732 11.4645 18.5355C10.5268 17.5979 10 16.3261 10 15C10 13.6739 10.5268 12.4021 11.4645 11.4645C12.4021 10.5268 13.6739 10 15 10C16.3261 10 17.5979 10.5268 18.5355 11.4645C19.4732 12.4021 20 13.6739 20 15C20 16.3261 19.4732 17.5979 18.5355 18.5355C17.5979 19.4732 16.3261 20 15 20Z" fill="#F8F8F8"/>
<path d="M21.0075 10.3561C21.7517 10.3561 22.355 9.75284 22.355 9.00863C22.355 8.26443 21.7517 7.66113 21.0075 7.66113C20.2633 7.66113 19.66 8.26443 19.66 9.00863C19.66 9.75284 20.2633 10.3561 21.0075 10.3561Z" fill="#F8F8F8"/>
</svg>
